<svg width="320" height="360" viewBox="0 0 320 360" fill="none" xmlns="http://www.w3.org/2000/svg">
  <defs>
    <linearGradient id="pinStroke" x1="48" y1="48" x2="260" y2="300" gradientUnits="userSpaceOnUse">
      <stop stop-color="#6FEFFF" />
      <stop offset="0.52" stop-color="#2F8CFF" />
      <stop offset="1" stop-color="#1E40AF" />
    </linearGradient>
    <linearGradient id="sky" x1="80" y1="74" x2="238" y2="250" gradientUnits="userSpaceOnUse">
      <stop stop-color="#CFFAFE" />
      <stop offset="0.5" stop-color="#60A5FA" />
      <stop offset="1" stop-color="#1D4ED8" />
    </linearGradient>
  </defs>
  <path d="M160 20C93.726 20 40 73.726 40 140C40 223.2 138.4 313.2 153.9 326.8C157.3 329.8 162.7 329.8 166.1 326.8C181.6 313.2 280 223.2 280 140C280 73.726 226.274 20 160 20Z" fill="#081225" stroke="url(#pinStroke)" stroke-width="12"/>
  <circle cx="160" cy="140" r="90" fill="url(#sky)"/>
  <path d="M78 184C101 166 124 158 147 160C176 163 199 181 242 166V238H78V184Z" fill="#0F2254" fill-opacity="0.9"/>
  <path d="M110 150L126 132L136 149L149 125L167 149L179 139L193 150" stroke="#E2F8FF" stroke-width="7" stroke-linecap="round" stroke-linejoin="round"/>
  <path d="M157 236L170 208H184L168 184H153L137 208H150L157 236Z" fill="#041228"/>
  <path d="M80 53L87 78L112 85L87 92L80 117L73 92L48 85L73 78L80 53Z" fill="#61F3FF"/>
</svg>
